<svg xmlns="http://www.w3.org/2000/svg" width="189" height="2" viewBox="0 0 189 2" fill="none">
  <path d="M0.466667 1C0.466667 1.29455 0.705448 1.53333 1 1.53333C1.29455 1.53333 1.53333 1.29455 1.53333 1C1.53333 0.705448 1.29455 0.466667 1 0.466667C0.705448 0.466667 0.466667 0.705448 0.466667 1ZM187.467 1C187.467 1.29455 187.705 1.53333 188 1.53333C188.295 1.53333 188.533 1.29455 188.533 1C188.533 0.705448 188.295 0.466667 188 0.466667C187.705 0.466667 187.467 0.705448 187.467 1ZM1 1.1H188V0.9H1V1.1Z" fill="black"/>
</svg>