<svg width="38" height="37" viewBox="0 0 38 37" fill="none" xmlns="http://www.w3.org/2000/svg">
<circle cx="18.944" cy="18.144" r="17.64" stroke="black" stroke-width="1.008"/>
<path d="M17.8284 24.4059C17.9438 24.5209 18.0353 24.6574 18.0977 24.8078C18.1601 24.9582 18.1923 25.1194 18.1923 25.2822C18.1923 25.445 18.1601 25.6062 18.0977 25.7566C18.0353 25.907 17.9438 26.0436 17.8284 26.1585L17.3006 26.6863C16.7403 27.2487 16.0741 27.6944 15.3404 27.9977C14.6068 28.301 13.8203 28.4558 13.0265 28.4533C11.8309 28.4537 10.6622 28.0994 9.66802 27.4354C8.67387 26.7714 7.899 25.8275 7.44145 24.723C6.98389 23.6185 6.86421 22.4031 7.09755 21.2306C7.33089 20.0581 7.90676 18.9811 8.75231 18.1359L12.3347 14.5535C13.0967 13.7917 14.0485 13.2473 15.0915 12.9768C16.1345 12.7063 17.2309 12.7195 18.2671 13.0151C19.3033 13.3106 20.2417 13.8777 20.9851 14.6577C21.7285 15.4377 22.2499 16.4022 22.4954 17.4514C22.536 17.6109 22.5444 17.777 22.5201 17.9398C22.4957 18.1026 22.4391 18.2589 22.3536 18.3996C22.2681 18.5403 22.1554 18.6624 22.022 18.759C21.8887 18.8555 21.7374 18.9245 21.577 18.9618C21.4167 18.9991 21.2505 19.0041 21.0883 18.9763C20.926 18.9486 20.7709 18.8888 20.632 18.8003C20.4932 18.7119 20.3734 18.5967 20.2796 18.4613C20.1859 18.326 20.1201 18.1733 20.0861 18.0122C19.9405 17.3929 19.632 16.8237 19.1927 16.3635C18.7534 15.9033 18.1992 15.5687 17.5873 15.3945C16.9753 15.2202 16.328 15.2126 15.7121 15.3723C15.0963 15.532 14.5343 15.8533 14.0842 16.303L10.5018 19.8854C10.0024 20.3844 9.66221 21.0202 9.52423 21.7125C9.38625 22.4048 9.45667 23.1225 9.72659 23.7747C9.99651 24.427 10.4538 24.9846 11.0406 25.377C11.6274 25.7694 12.3174 25.9789 13.0234 25.9791C13.4924 25.9805 13.9571 25.8888 14.3904 25.7094C14.8238 25.5299 15.2173 25.2663 15.5481 24.9338L16.0749 24.4059C16.1898 24.2905 16.3264 24.1988 16.4769 24.1363C16.6274 24.0738 16.7887 24.0416 16.9516 24.0416C17.1146 24.0416 17.2759 24.0738 17.4264 24.1363C17.5769 24.1988 17.7135 24.2905 17.8284 24.4059ZM29.1324 9.60517C27.9985 8.47171 26.4609 7.83496 24.8577 7.83496C23.2545 7.83496 21.7169 8.47171 20.583 9.60517L20.0562 10.132C19.8238 10.3644 19.6933 10.6796 19.6933 11.0082C19.6933 11.3369 19.8238 11.6521 20.0562 11.8845C20.2886 12.1169 20.6038 12.2475 20.9325 12.2475C21.2612 12.2475 21.5764 12.1169 21.8088 11.8845L22.3366 11.3567C23.0065 10.6868 23.915 10.3105 24.8623 10.3105C25.8097 10.3105 26.7182 10.6868 27.3881 11.3567C28.0579 12.0266 28.4342 12.9351 28.4342 13.8824C28.4342 14.8297 28.0579 15.7383 27.3881 16.4081L23.7995 19.9854C23.4687 20.3179 23.0752 20.5816 22.6418 20.761C22.2085 20.9404 21.7438 21.0321 21.2748 21.0307C20.4701 21.0302 19.6893 20.7578 19.0589 20.2578C18.4284 19.7578 17.9854 19.0595 17.8016 18.2761C17.7273 17.9565 17.529 17.6795 17.2504 17.5061C16.9718 17.3327 16.6357 17.2771 16.3161 17.3514C15.9965 17.4258 15.7195 17.6241 15.5461 17.9027C15.3726 18.1813 15.317 18.5173 15.3914 18.837C15.7018 20.1636 16.4512 21.3465 17.5182 22.1938C18.5852 23.0411 19.9071 23.5031 21.2696 23.5049H21.2748C22.069 23.5071 22.8558 23.3518 23.5896 23.048C24.3234 22.7441 24.9897 22.2978 25.5499 21.7348L29.1324 18.1524C29.6936 17.5913 30.1389 16.925 30.4427 16.1917C30.7465 15.4585 30.9028 14.6725 30.9028 13.8788C30.9028 13.0851 30.7465 12.2992 30.4427 11.5659C30.1389 10.8326 29.6936 10.1664 29.1324 9.60517Z" fill="black"/>
</svg>
